<svg width="169" height="169" viewBox="0 0 169 169" fill="none" xmlns="http://www.w3.org/2000/svg">
<path d="M14.6957 59.528L152.585 0L169 69.2187L31.9318 127.362L14.6957 59.528Z" fill="#251D3A"/>
<path d="M0 101.166L137.889 41.6377L154.304 110.856L17.2361 169L0 101.166Z" fill="#E04D01" fill-opacity="0.8"/>
<path d="M88.0338 91.2019L90.799 94.0696L94.164 92.7531L80.2276 79.2892L77.3288 80.4234L80.5224 98.0902L83.8873 96.7737L83.066 93.1455L88.0338 91.2019ZM82.4361 90.2869L81.0035 83.8836L85.8692 88.9437L82.4361 90.2869ZM87.7646 76.3405L89.1079 78.7641L92.2568 77.5321L98.1922 88.2409L95.0433 89.4729L96.3807 91.8858L105.953 88.1409L104.615 85.728L101.387 86.9911L95.4512 76.2823L98.6797 75.0192L97.3364 72.5956L87.7646 76.3405ZM112.055 78.6858L118.389 83.2753L121.811 81.9366L121.734 81.7978L114.619 76.7731C114.967 76.4031 115.25 76.0152 115.468 75.6095C115.694 75.2008 115.84 74.7667 115.908 74.307C115.973 73.8574 115.951 73.3853 115.843 72.8906C115.738 72.3859 115.532 71.8559 115.224 71.3007C114.798 70.532 114.279 69.9121 113.668 69.4411C113.064 68.9672 112.392 68.6367 111.652 68.4499C110.905 68.2659 110.104 68.2196 109.251 68.3109C108.394 68.395 107.507 68.6165 106.59 68.9753L101.042 71.1457L109.658 86.691L112.853 85.4413L109.634 79.6331L112.055 78.6858ZM108.284 77.1988L105.586 72.3302L107.939 71.4096C108.379 71.2376 108.797 71.1347 109.193 71.1009C109.589 71.0672 109.956 71.0969 110.294 71.19C110.673 71.2926 111.016 71.4789 111.323 71.7488C111.633 72.0086 111.902 72.3449 112.131 72.7578C112.32 73.0994 112.439 73.4298 112.487 73.7489C112.542 74.0651 112.526 74.3613 112.44 74.6377C112.343 74.9788 112.142 75.291 111.838 75.5745C111.538 75.8479 111.142 76.081 110.649 76.2737L108.284 77.1988ZM118.947 64.1408L114.979 65.693L123.596 81.2383L126.529 80.0908L123.978 75.4891L119.971 68.5599L125.496 74.2588L127.076 73.6406L125.507 66.0434L129.401 73.3676L131.951 77.9693L134.884 76.8218L126.268 61.2765L122.3 62.8287L123.753 69.3672L118.947 64.1408ZM143.964 69.3198L146.729 72.1875L150.094 70.871L136.158 57.4071L133.259 58.5412L136.453 76.2081L139.818 74.8916L138.996 71.2634L143.964 69.3198ZM138.366 68.4047L136.934 62.0015L141.8 67.0616L138.366 68.4047ZM162.52 66.0098L153.903 50.4644L150.698 51.7187L156.219 61.7059L146.116 53.511L142.899 54.7697L151.515 70.315L154.732 69.0564L149.176 59.0309L159.337 67.2551L162.52 66.0098Z" fill="white"/>
</svg>
